<svg id="Capa_1" enable-background="new 0 0 512.001 512.001" height="512" viewBox="0 0 512.001 512.001" width="512" xmlns="http://www.w3.org/2000/svg"><g><path d="m127.031 85.157c-6.456 0-12.189-4.131-14.23-10.257l-6.414-19.243c-3.403-10.209-12.956-17.094-23.717-17.094h-46.064c-8.284 0-15 6.716-15 15v124.781h468.791v-68.188c0-13.807-11.193-25-25-25h-338.366z" fill="#feb237"/><path d="m490.396 134.773c-3.289-1.595-6.983-2.492-10.896-2.492h-446.998c-3.913 0-7.607.896-10.896 2.492v43.571h468.791v-43.571z" fill="#f6ab31"/><path d="m442.376 147.282-186.375 15.531-186.375-15.531v-31.063h372.75z" fill="#fff"/><path d="m69.626 132.282v15l186.375 15.531 186.375-15.531v-15z" fill="#f2fbff"/><path d="m466.35 473.438h-420.698c-13.345 0-24.337-10.481-24.972-23.811l-13.15-276.156c-.679-14.258 10.698-26.189 24.972-26.189h446.998c14.274 0 25.651 11.931 24.972 26.189l-13.15 276.156c-.635 13.33-11.627 23.811-24.972 23.811z" fill="#ffc344"/><g fill="#feb237"><path d="m240.47 348.397c-1.919 0-3.839-.732-5.304-2.197-2.929-2.929-2.928-7.678.001-10.606l13.338-13.336-.004-20.193c-.001-4.142 3.356-7.5 7.499-7.501h.001c4.142 0 7.499 3.357 7.5 7.499l.005 23.301c0 1.99-.79 3.898-2.197 5.305l-15.536 15.533c-1.465 1.464-3.384 2.195-5.303 2.195z"/><path d="m334.624 244.414c2.088 1.912 2.128 5.195.126 7.198l-25.918 25.917c-1.844 1.844-4.817 1.987-6.778.268-12.3-10.786-28.414-17.322-46.049-17.322-19.3 0-36.78 7.82-49.42 20.47-7.614 7.605-13.48 16.958-16.939 27.404-.904 2.731.68 5.663 3.459 6.408l6.642 1.78c3.98 1.067 5.034 6.219 1.793 8.763l-15.104 11.856-32.867 25.804c-2.622 2.058-6.485 1.024-7.727-2.069l-4.886-12.164-17.835-44.438c-1.535-3.824 1.955-7.759 5.935-6.692l9.321 2.499c2.624.704 5.306-.825 6.09-3.426 5.613-18.618 15.768-35.272 29.169-48.673 21.08-21.08 50.2-34.12 82.37-34.12 30.297-.003 57.897 11.571 78.618 30.537z"/><path d="m177.388 416.315c-2.088-1.912-2.128-5.195-.126-7.198l29.324-29.333h.01c12.65 12.65 30.12 20.47 49.41 20.47 19.3 0 36.78-7.82 49.42-20.47 7.614-7.605 13.48-16.958 16.939-27.404.904-2.731-.68-5.663-3.459-6.408l-6.642-1.78c-3.98-1.067-5.034-6.219-1.793-8.763l15.104-11.856 32.867-25.804c2.622-2.058 6.485-1.024 7.727 2.069l4.886 12.164 17.835 44.438c1.535 3.824-1.955 7.759-5.935 6.692l-9.321-2.499c-2.624-.704-5.306.825-6.09 3.426-5.613 18.618-15.768 35.272-29.169 48.673-21.08 21.08-50.2 34.12-82.37 34.12-30.297.002-57.896-11.571-78.617-30.537z"/><path d="m479.5 147.282h-15.498c.404 1.99.571 4.064.47 6.189l-11.557 242.692c-1.527 32.063-27.967 57.275-60.067 57.275h-371.694c2.327 11.463 12.454 20 24.498 20h420.698c13.345 0 24.337-10.481 24.972-23.811l13.15-276.156c.679-14.258-10.698-26.189-24.972-26.189z"/></g><path d="m338.366 227.994-32.94 32.95h-.01c-12.65-12.65-30.12-20.47-49.41-20.47-19.3 0-36.78 7.82-49.42 20.47-8.83 8.82-15.31 19.99-18.41 32.49l21.23 5.69-22.97 18.03-38.11 29.92-7.37-18.35-21.56-53.72 23.76 6.37c5.25-20.52 15.96-38.86 30.48-53.38 21.08-21.08 50.2-34.12 82.37-34.12 32.16 0 61.28 13.04 82.36 34.12z" fill="#80d261"/><path d="m173.646 392.734 32.94-32.95h.01c12.65 12.65 30.12 20.47 49.41 20.47 19.3 0 36.78-7.82 49.42-20.47 8.83-8.82 15.31-19.99 18.41-32.49l-21.23-5.69 22.97-18.03 38.11-29.92 7.37 18.35 21.56 53.72-23.76-6.37c-5.25 20.52-15.96 38.86-30.48 53.38-21.08 21.08-50.2 34.12-82.37 34.12-32.16 0-61.28-13.04-82.36-34.12z" fill="#01c0fa"/><path d="m503.022 149.855c-1.577-1.654-3.294-3.118-5.126-4.383v-35.315c0-17.92-14.579-32.5-32.5-32.5h-272.27c-4.142 0-7.5 3.358-7.5 7.5s3.358 7.5 7.5 7.5h272.271c9.649 0 17.5 7.851 17.5 17.5v29.798c-1.12-.115-2.253-.173-3.396-.173h-29.624v-23.562c0-4.142-3.357-7.5-7.5-7.5h-372.751c-4.142 0-7.5 3.358-7.5 7.5v23.562h-29.625c-1.143 0-2.276.058-3.396.173v-86.392c0-4.136 3.364-7.5 7.5-7.5h46.064c7.544 0 14.216 4.809 16.602 11.966l6.414 19.244c3.068 9.202 11.646 15.384 21.346 15.384h31.095c4.142 0 7.5-3.358 7.5-7.5s-3.358-7.5-7.5-7.5h-31.095c-3.233 0-6.093-2.061-7.115-5.128l-6.414-19.243c-4.431-13.292-16.821-22.223-30.833-22.223h-46.064c-12.407 0-22.5 10.093-22.5 22.5v91.909c-1.831 1.264-3.548 2.728-5.125 4.382-6.193 6.495-9.369 15.009-8.942 23.974l13.15 276.156c.827 17.357 15.086 30.954 32.463 30.954h19.444c4.142 0 7.5-3.358 7.5-7.5s-3.358-7.5-7.5-7.5h-19.443c-9.357 0-17.035-7.321-17.48-16.668l-13.15-276.156c-.23-4.827 1.48-9.412 4.815-12.909 3.225-3.382 7.68-5.423 12.665-5.423h446.998c4.839 0 9.336 1.932 12.666 5.424 3.335 3.497 5.044 8.082 4.814 12.909l-13.149 276.155c-.445 9.347-8.124 16.668-17.481 16.668h-366.254c-4.142 0-7.5 3.358-7.5 7.5s3.358 7.5 7.5 7.5h366.254c17.378 0 31.638-13.597 32.464-30.954l13.149-276.156c.428-8.964-2.748-17.478-8.941-23.973zm-425.896-26.136h357.75v16.062h-357.75z"/><path d="m146.942 287.848c1.73-1.012 2.983-2.674 3.48-4.615 4.817-18.829 14.678-36.097 28.517-49.936 20.586-20.586 47.956-31.923 77.067-31.923 9.328 0 18.589 1.18 27.526 3.506 4.008 1.042 8.104-1.361 9.147-5.369 1.044-4.008-1.36-8.104-5.368-9.147-10.17-2.647-20.703-3.989-31.305-3.989-33.118 0-64.254 12.897-87.673 36.317-13.938 13.938-24.33 30.942-30.335 49.535l-16.659-4.466c-2.747-.735-5.668.143-7.554 2.268-1.885 2.125-2.407 5.133-1.349 7.77l28.931 72.072c.879 2.19 2.739 3.839 5.02 4.449 2.269.608 4.706.119 6.571-1.345l61.08-47.95c2.234-1.754 3.286-4.62 2.717-7.403s-2.662-5.005-5.406-5.741l-13.694-3.67c3.111-8.195 7.954-15.687 14.238-21.964 11.773-11.783 27.439-18.271 44.114-18.271 16.659 0 32.323 6.49 44.106 18.273 1.407 1.407 3.324 2.197 5.313 2.197s3.897-.791 5.304-2.197l32.94-32.95c2.929-2.929 2.928-7.677 0-10.606-6.945-6.945-14.708-13.061-23.073-18.177-3.532-2.161-8.149-1.049-10.312 2.485-2.161 3.533-1.049 8.15 2.485 10.311 5.226 3.196 10.184 6.836 14.809 10.867l-22.41 22.417c-13.82-11.412-31.015-17.619-49.163-17.619-20.684 0-40.119 8.051-54.72 22.664-9.969 9.958-17.02 22.403-20.389 35.991-.984 3.967 1.39 7.991 5.338 9.049l6.743 1.807-41.418 32.515-19.615-48.868 9.27 2.485c1.935.517 3.998.24 5.727-.772z"/><path d="m206.586 352.284c-1.99 0-3.897.791-5.304 2.198l-32.94 32.95c-2.928 2.929-2.928 7.677.001 10.605 23.419 23.419 54.552 36.316 87.663 36.316 33.117 0 64.254-12.897 87.674-36.316 13.938-13.938 24.33-30.942 30.334-49.536l16.66 4.466c2.74.735 5.668-.142 7.554-2.268 1.885-2.125 2.407-5.134 1.349-7.77l-28.931-72.072c-.88-2.19-2.74-3.839-5.02-4.449-2.281-.609-4.715-.112-6.572 1.346l-61.079 47.949c-2.234 1.754-3.286 4.62-2.717 7.403s2.662 5.005 5.406 5.741l13.694 3.67c-3.11 8.194-7.953 15.687-14.238 21.964-11.772 11.783-27.439 18.271-44.114 18.271-16.659 0-32.322-6.49-44.106-18.273-1.407-1.405-3.325-2.195-5.314-2.195zm104.14 12.807c9.97-9.958 17.021-22.404 20.39-35.992.984-3.967-1.39-7.991-5.338-9.049l-6.742-1.807 41.417-32.515 19.616 48.867-9.271-2.485c-1.938-.519-4-.242-5.729.77-1.73 1.012-2.983 2.674-3.479 4.615-4.817 18.83-14.679 36.097-28.518 49.936-20.586 20.586-47.956 31.923-77.066 31.923-26.591 0-51.732-9.465-71.576-26.799l22.413-22.42c13.82 11.412 31.015 17.62 49.163 17.62 20.683-.001 40.119-8.051 54.72-22.664z"/><path d="m235.166 331.2c2.928 2.929 7.677 2.93 10.606.001l15.536-15.533c1.407-1.407 2.198-3.315 2.197-5.305l-.005-38.831c0-4.142-3.358-7.5-7.5-7.5s-7.5 3.358-7.5 7.5l.004 35.726-13.338 13.336c-2.928 2.928-2.929 7.677 0 10.606z"/></g></svg>