<svg height="512pt" viewBox="0 0 512 512" width="512pt" xmlns="http://www.w3.org/2000/svg"><path d="m512 256c0 141.386719-114.613281 256-256 256s-256-114.613281-256-256 114.613281-256 256-256 256 114.613281 256 256zm0 0" fill="#194189"/><path d="m47.144531 512h417.710938c8.28125 0 14.496093-7.574219 12.878906-15.695312l-46.34375-232.554688c-4.210937-21.136719-20.953125-37.527344-42.171875-41.296875l-87.578125-15.554687c-11.800781-2.09375-20.128906-12.730469-19.335937-24.6875l11.894531-179.371094c-12.460938-1.863282-25.214844-2.839844-38.199219-2.839844s-25.738281.976562-38.199219 2.839844l11.867188 178.902344c.808593 12.222656-7.707031 23.097656-19.769531 25.238281l-87.117188 15.472656c-21.21875 3.769531-37.960938 20.160156-42.171875 41.296875l-46.34375 232.550781c-1.617187 8.125 4.597656 15.699219 12.878906 15.699219zm0 0" fill="#f2bc36"/><path d="m294.199219 2.839844c-12.460938-1.863282-25.214844-2.839844-38.199219-2.839844s-25.738281.976562-38.199219 2.839844l11.832031 178.390625c16.925782 6.578125 35.675782 6.738281 52.707032.457031zm0 0" fill="#fce98b"/><path d="m256.03125 108.28125c-.226562 0-.457031-.003906-.683594-.007812-14.304687-.210938-26.574218-9.011719-31.984375-21.519532l6.269531 94.476563c16.921876 6.578125 35.671876 6.738281 52.703126.457031l6.296874-94.914062c-5.496093 12.722656-18.0625 21.617187-32.601562 21.507812zm0 0" fill="#fadf44"/><path d="m224.960938 269.429688c-13.539063-6.042969-22.980469-19.613282-22.980469-35.398438 0-11.132812 4.703125-21.167969 12.222656-28.234375-1.371094.519531-2.808594.921875-4.304687 1.183594l-87.117188 15.472656c-21.21875 3.769531-37.960938 20.160156-42.171875 41.296875l-46.34375 232.550781c-1.617187 8.125 4.597656 15.699219 12.878906 15.699219h136.796875zm0 0" fill="#e59033"/><path d="m399.183594 292.195312c-4.890625-13.652343-17.832032-22.761718-32.335938-22.761718-12.300781 0-209.394531 0-221.695312 0-14.503906 0-27.445313 9.109375-32.335938 22.761718l-76.640625 213.894532c2.328125 3.523437 6.320313 5.910156 10.96875 5.910156h417.710938c4.648437 0 8.640625-2.386719 10.964843-5.910156zm0 0" fill="#fadf44"/><path d="m183.941406 512 41.019532-242.570312c-40.398438 0-74.886719 0-79.808594 0-14.503906 0-27.445313 9.109374-32.335938 22.765624l-76.640625 213.894532c.109375.09375 3.796875 5.90625 10.960938 5.910156h.007812zm0 0" fill="#f2bc36"/></svg>